<svg width="38" height="38" viewBox="0 0 38 38" fill="none" xmlns="http://www.w3.org/2000/svg">
<path d="M24.9375 19C24.9375 20.5747 24.3119 22.085 23.1984 23.1984C22.085 24.3119 20.5747 24.9375 19 24.9375C17.4253 24.9375 15.9151 24.3119 14.8016 23.1984C13.6881 22.085 13.0625 20.5747 13.0625 19C13.0625 18.6616 13.0981 18.331 13.1595 18.0104H11.0833V25.9211C11.0833 26.4714 11.5286 26.9167 12.0789 26.9167H25.9231C26.1868 26.9161 26.4395 26.811 26.6258 26.6244C26.8121 26.4377 26.9167 26.1848 26.9167 25.9211V18.0104H24.8405C24.9019 18.331 24.9375 18.6616 24.9375 19V19ZM19 22.9583C19.5199 22.9582 20.0348 22.8557 20.5151 22.6566C20.9954 22.4575 21.4318 22.1657 21.7994 21.798C22.1669 21.4302 22.4585 20.9937 22.6573 20.5133C22.8562 20.0328 22.9585 19.518 22.9583 18.998C22.9582 18.4781 22.8557 17.9632 22.6566 17.4829C22.4575 17.0026 22.1657 16.5662 21.798 16.1986C21.4302 15.8311 20.9937 15.5395 20.5133 15.3407C20.0328 15.1418 19.518 15.0396 18.998 15.0397C17.9479 15.0399 16.941 15.4573 16.1986 16.2C15.4563 16.9427 15.0394 17.9499 15.0397 19C15.0399 20.0501 15.4573 21.057 16.2 21.7994C16.9427 22.5417 17.9499 22.9586 19 22.9583V22.9583ZM23.75 14.8438H26.123C26.2807 14.8438 26.4319 14.7813 26.5436 14.67C26.6552 14.5587 26.7182 14.4077 26.7188 14.25V11.877C26.7187 11.719 26.656 11.5675 26.5443 11.4557C26.4325 11.344 26.281 11.2812 26.123 11.2812H23.75C23.592 11.2812 23.4405 11.344 23.3288 11.4557C23.217 11.5675 23.1543 11.719 23.1543 11.877V14.25C23.1562 14.5766 23.4234 14.8438 23.75 14.8438V14.8438ZM19 0C13.9609 0 9.12816 2.00178 5.56497 5.56497C2.00178 9.12816 0 13.9609 0 19C0 24.0391 2.00178 28.8718 5.56497 32.435C9.12816 35.9982 13.9609 38 19 38C21.4951 38 23.9658 37.5086 26.271 36.5537C28.5762 35.5989 30.6707 34.1993 32.435 32.435C34.1993 30.6707 35.5989 28.5762 36.5537 26.271C37.5086 23.9658 38 21.4951 38 19C38 16.5049 37.5086 14.0342 36.5537 11.729C35.5989 9.42383 34.1993 7.32928 32.435 5.56497C30.6707 3.80066 28.5762 2.40113 26.271 1.44629C23.9658 0.49145 21.4951 0 19 0V0ZM28.8958 26.697C28.8958 27.9063 27.9063 28.8958 26.697 28.8958H11.303C10.0937 28.8958 9.10417 27.9063 9.10417 26.697V11.303C9.10417 10.0937 10.0937 9.10417 11.303 9.10417H26.697C27.9063 9.10417 28.8958 10.0937 28.8958 11.303V26.697V26.697Z" fill="#21272A"/>
</svg>
