<svg width="22" height="24" viewBox="0 0 22 24" fill="none" xmlns="http://www.w3.org/2000/svg">
<path id="Vector" d="M14.446 1.04831C14.2495 0.961041 14.0264 0.955392 13.8258 1.0326C13.6252 1.10981 13.4635 1.26355 13.3762 1.46C13.289 1.65645 13.2833 1.87952 13.3605 2.08014C13.4377 2.28076 13.5915 2.44249 13.7879 2.52976C13.8009 2.53624 13.9711 2.61566 14.2466 2.77774C15.902 3.76259 17.2883 5.14117 18.2825 6.79095C19.9358 9.56097 19.8158 12.4996 19.7931 13.0539L19.7899 13.1349C19.7897 13.3499 19.8748 13.5561 20.0267 13.7082C20.1785 13.8603 20.3846 13.9459 20.5995 13.9462C20.8144 13.9464 21.0207 13.8612 21.1728 13.7094C21.3249 13.5575 21.4105 13.3515 21.4107 13.1365V13.143L21.4123 13.1009C21.448 12.3251 21.4127 11.5476 21.307 10.7782C21.1287 9.43616 20.6992 7.67593 19.6764 5.96108C17.6504 2.57028 14.634 1.13097 14.446 1.04993V1.04831ZM14.5918 5.18956C14.5044 5.1248 14.4049 5.07831 14.2992 5.05284C14.1934 5.02737 14.0836 5.02344 13.9763 5.0413C13.869 5.05916 13.7664 5.09844 13.6746 5.15679C13.5828 5.21514 13.5037 5.29137 13.442 5.38094C13.3803 5.47052 13.3373 5.57159 13.3154 5.67815C13.2936 5.78471 13.2935 5.89458 13.315 6.00119C13.3366 6.10781 13.3793 6.209 13.4408 6.29874C13.5023 6.38847 13.5812 6.46491 13.6728 6.52351C14.4293 7.02784 15.0525 7.70765 15.4894 8.50495C15.9263 9.30226 16.1639 10.1934 16.1819 11.1024V11.1089C16.1819 11.3238 16.2673 11.5299 16.4193 11.6819C16.5712 11.8339 16.7774 11.9193 16.9923 11.9193C17.2072 11.9193 17.4134 11.8339 17.5654 11.6819C17.7174 11.5299 17.8027 11.3238 17.8027 11.1089V11.0068C17.794 10.6764 17.7615 10.347 17.7055 10.0213C17.5697 9.23132 17.3076 8.46839 16.9291 7.76183C16.541 7.04736 16.0365 6.40261 15.4363 5.8541C14.9727 5.42944 14.587 5.18631 14.5918 5.18956ZM1.2118 16.7105C0.384893 15.2236 0.175604 13.4712 0.629076 11.8314C1.08255 10.1916 2.16244 8.79571 3.63581 7.94491C5.10917 7.09412 6.85793 6.85657 8.50486 7.28352C10.1518 7.71047 11.5649 8.76769 12.4394 10.2271L13.7685 12.5287L16.8578 14.7768C16.9669 14.8563 17.0544 14.9617 17.1124 15.0835C17.1704 15.2053 17.1971 15.3397 17.19 15.4745C17.1829 15.6093 17.1423 15.7401 17.0718 15.8552C17.0014 15.9703 16.9033 16.0659 16.7865 16.1335L12.6857 18.5015L12.6906 18.5048L8.25274 21.0673V21.0608L4.15201 23.4273C4.03513 23.4947 3.90327 23.5319 3.76839 23.5354C3.63351 23.5389 3.49988 23.5088 3.37962 23.4476C3.25936 23.3864 3.15628 23.2962 3.07973 23.1851C3.00317 23.074 2.95557 22.9455 2.94124 22.8113L2.54089 19.0137L1.2118 16.7105ZM2.61545 15.9001L4.03044 18.3524C4.08693 18.4504 4.12227 18.5592 4.13418 18.6717L4.42269 21.4012L14.8966 15.3539L12.676 13.7395C12.5849 13.6728 12.5087 13.5878 12.4523 13.4899L11.0357 11.0392C10.3785 9.9475 9.31894 9.15744 8.08511 8.839C6.85128 8.52055 5.54175 8.69916 4.43827 9.3364C3.33479 9.97363 2.52554 11.0186 2.18464 12.2464C1.84375 13.4742 1.99844 14.7852 2.61545 15.9001ZM8.85245 22.5942C9.27532 23.1272 9.8757 23.4904 10.5441 23.6176C11.2125 23.7449 11.9043 23.6276 12.4934 23.2873C13.0826 22.9469 13.5297 22.4061 13.7534 21.7636C13.977 21.121 13.9622 20.4194 13.7117 19.7869L8.85245 22.5925V22.5942Z" fill="white"/>
</svg>
