<svg width="37" height="38" viewBox="0 0 37 38" fill="none" xmlns="http://www.w3.org/2000/svg">
<path d="M18.5 0C8.28261 0 0 8.50646 0 19C0 29.4935 8.28261 38 18.5 38C28.7174 38 37 29.4935 37 19C37 8.50646 28.7174 0 18.5 0ZM26.0253 15.5642C26.033 15.7265 26.0349 15.8888 26.0349 16.0471C26.0349 20.995 22.3715 26.697 15.6691 26.697C13.6886 26.7004 11.7494 26.1162 10.0844 25.0147C10.3677 25.0503 10.6587 25.0642 10.9535 25.0642C12.6609 25.0642 14.2315 24.4684 15.4783 23.463C14.7185 23.4477 13.9823 23.1893 13.3722 22.7238C12.7622 22.2584 12.3088 21.6091 12.0751 20.8664C12.6208 20.9729 13.1829 20.9506 13.7189 20.801C12.8942 20.6298 12.1526 20.1708 11.6197 19.502C11.0869 18.8333 10.7957 17.9958 10.7955 17.1317V17.0861C11.2869 17.3652 11.8496 17.5354 12.447 17.5552C11.6739 17.0266 11.1266 16.2147 10.917 15.2854C10.7075 14.3561 10.8515 13.3797 11.3197 12.5558C12.235 13.7117 13.3764 14.6572 14.6701 15.3312C15.9637 16.0053 17.3808 16.3928 18.8295 16.4686C18.6453 15.6657 18.7246 14.8228 19.055 14.0709C19.3854 13.319 19.9484 12.7003 20.6565 12.3109C21.3646 11.9216 22.1782 11.7834 22.9706 11.9179C23.7631 12.0524 24.4901 12.452 25.0386 13.0546C25.8541 12.8889 26.6361 12.5817 27.3511 12.1461C27.0793 13.0133 26.5103 13.7496 25.7497 14.2183C26.472 14.129 27.1774 13.9295 27.8425 13.6266C27.354 14.3784 26.7385 15.0346 26.0253 15.5642Z" fill="#21272A"/>
</svg>
